<?xml version="1.0" encoding="UTF-8" standalone="no"?>
<svg
   xmlns:dc="http://purl.org/dc/elements/1.1/"
   xmlns:cc="http://creativecommons.org/ns#"
   xmlns:rdf="http://www.w3.org/1999/02/22-rdf-syntax-ns#"
   xmlns:svg="http://www.w3.org/2000/svg"
   xmlns="http://www.w3.org/2000/svg"
   xmlns:sodipodi="http://sodipodi.sourceforge.net/DTD/sodipodi-0.dtd"
   xmlns:inkscape="http://www.inkscape.org/namespaces/inkscape"
   width="512px"
   height="512px"
   viewBox="0 0 512 512"
   version="1.1"
   id="svg849"
   sodipodi:docname="icon.svg">
  <metadata
     id="metadata855">
    <rdf:RDF>
      <cc:Work
         rdf:about="">
        <dc:format>image/svg+xml</dc:format>
        <dc:type
           rdf:resource="http://purl.org/dc/dcmitype/StillImage" />
      </cc:Work>
    </rdf:RDF>
  </metadata>
  <defs
     id="defs853" />
  <sodipodi:namedview
     pagecolor="#ffffff"
     bordercolor="#666666"
     borderopacity="1"
     objecttolerance="10"
     gridtolerance="10"
     guidetolerance="10"
     inkscape:pageopacity="0"
     inkscape:pageshadow="2"
     inkscape:window-width="911"
     inkscape:window-height="480"
     id="namedview851"
     showgrid="false"
     inkscape:zoom="1.6152344"
     inkscape:cx="256"
     inkscape:cy="256"
     inkscape:window-x="0"
     inkscape:window-y="0"
     inkscape:window-maximized="1"
     inkscape:current-layer="svg849" />
  <path
     d="M256,112a56,56,0,1,1,56-56A56.06,56.06,0,0,1,256,112Z"
     id="path845" />
  <path
     d="M432,112.8l-.45.12h0l-.42.13c-1,.28-2,.58-3,.89-18.61,5.46-108.93,30.92-172.56,30.92-59.13,0-141.28-22-167.56-29.47a73.79,73.79,0,0,0-8-2.58c-19-5-32,14.3-32,31.94,0,17.47,15.7,25.79,31.55,31.76v.28l95.22,29.74c9.73,3.73,12.33,7.54,13.6,10.84,4.13,10.59.83,31.56-.34,38.88l-5.8,45L150.05,477.44q-.15.72-.27,1.47l-.23,1.27h0c-2.32,16.15,9.54,31.82,32,31.82,19.6,0,28.25-13.53,32-31.94h0s28-157.57,42-157.57,42.84,157.57,42.84,157.57h0c3.75,18.41,12.4,31.94,32,31.94,22.52,0,34.38-15.74,32-31.94-.21-1.38-.46-2.74-.76-4.06L329,301.27l-5.79-45c-4.19-26.21-.82-34.87.32-36.9a1.09,1.09,0,0,0,.08-.15c1.08-2,6-6.48,17.48-10.79l89.28-31.21a16.9,16.9,0,0,0,1.62-.52c16-6,32-14.3,32-31.93S451,107.81,432,112.8Z"
     id="path847"
     style="fill:#6699ff" />
  <g
     inkscape:groupmode="layer"
     id="layer2"
     inkscape:label="Layer 1"
     style="display:none">
    <path
       id="path845-0-8"
       d="M 320,111.88 A 56,56 0 1 1 376,55.880002 56.06,56.06 0 0 1 320,111.88 Z"
       style="fill:#00cc00" />
    <path
       id="path847-1-2"
       d="m 496,112.68 -0.45,0.12 v 0 l -0.42,0.13 c -1,0.28 -2,0.58 -3,0.89 -18.61,5.46 -108.93,30.92 -172.56,30.92 -59.13,0 -141.28,-22 -167.55999,-29.47 a 73.79,73.79 0 0 0 -8,-2.58 c -19,-5 -32,14.3 -32,31.94 0,17.47 15.7,25.79 31.55,31.76 v 0.28 L 238.78,206.41 c 9.73,3.73 12.33,7.54 13.6,10.84 4.13,10.59 0.83,31.56 -0.34,38.88 l -5.8,45 -32.19,176.19 q -0.15,0.72 -0.27,1.47 l -0.23,1.27 v 0 c -2.32,16.15 9.54,31.82 32,31.82 19.6,0 28.25,-13.53 32,-31.94 v 0 c 0,0 28,-157.57 42,-157.57 14,0 42.84,157.57 42.84,157.57 v 0 c 3.75,18.41 12.4,31.94 32,31.94 22.52,0 34.38,-15.74 32,-31.94 -0.21,-1.38 -0.46,-2.74 -0.76,-4.06 L 393,301.15 l -5.79,-45 c -4.19,-26.21 -0.82,-34.87 0.32,-36.9 a 1.09,1.09 0 0 0 0.08,-0.15 c 1.08,-2 6,-6.48 17.48,-10.79 l 89.28,-31.21 a 16.9,16.9 0 0 0 1.62,-0.52 c 16,-6 32,-14.3 32,-31.93 0,-17.63 -12.99,-36.96 -31.99,-31.97 z"
       style="fill:#00cc00" />
  </g>
  <g
     inkscape:groupmode="layer"
     id="layer3"
     inkscape:label="Layer 2"
     style="display:none">
    <path
       id="path845-0-8-1"
       d="m 384,111.76 a 56,56 0 1 1 56,-56 56.06,56.06 0 0 1 -56,56 z"
       style="fill:#3366cc" />
    <path
       id="path847-1-2-2"
       d="m 560,112.56 -0.45,0.12 v 0 l -0.42,0.13 c -1,0.28 -2,0.58 -3,0.89 -18.61,5.46 -108.93,30.92 -172.56,30.92 -59.13,0 -141.28,-22 -167.55999,-29.47 a 73.79,73.79 0 0 0 -8,-2.58 c -19,-5 -32,14.3 -32,31.94 0,17.47 15.7,25.79 31.55,31.76 v 0.28 L 302.78,206.29 c 9.73,3.73 12.33,7.54 13.6,10.84 4.13,10.59 0.83,31.56 -0.34,38.88 l -5.8,45 -32.19,176.19 q -0.15,0.72 -0.27,1.47 l -0.23,1.27 v 0 c -2.32,16.15 9.54,31.82 32,31.82 19.6,0 28.25,-13.53 32,-31.94 v 0 c 0,0 28,-157.57 42,-157.57 14,0 42.84,157.57 42.84,157.57 v 0 c 3.75,18.41 12.4,31.94 32,31.94 22.52,0 34.38,-15.74 32,-31.94 -0.21,-1.38 -0.46,-2.74 -0.76,-4.06 L 457,301.03 l -5.79,-45 c -4.19,-26.21 -0.82,-34.87 0.32,-36.9 a 1.09,1.09 0 0 0 0.08,-0.15 c 1.08,-2 6,-6.48 17.48,-10.79 l 89.28,-31.21 a 16.9,16.9 0 0 0 1.62,-0.52 c 16,-6 32,-14.3 32,-31.93 0,-17.63 -12.99,-36.96 -31.99,-31.97 z"
       style="fill:#3366cc" />
  </g>
  <g
     inkscape:groupmode="layer"
     id="layer4"
     inkscape:label="Layer 3"
     style="display:none">
    <path
       id="path845-0-8-3"
       d="M 448,111.64 A 56,56 0 1 1 504,55.640003 56.06,56.06 0 0 1 448,111.64 Z"
       style="fill:#ffcc00" />
    <path
       id="path847-1-2-6"
       d="m 624,112.44 -0.45,0.12 v 0 l -0.42,0.13 c -1,0.28 -2,0.58 -3,0.89 -18.61,5.46 -108.93,30.92 -172.56,30.92 -59.13,0 -141.28,-22 -167.55999,-29.47 a 73.79,73.79 0 0 0 -8,-2.58 c -19,-5 -32,14.3 -32,31.94 0,17.47 15.7,25.79 31.55,31.76 v 0.28 L 366.78,206.17 c 9.73,3.73 12.33,7.54 13.6,10.84 4.13,10.59 0.83,31.56 -0.34,38.88 l -5.8,45 -32.19,176.19 q -0.15,0.72 -0.27,1.47 l -0.23,1.27 v 0 c -2.32,16.15 9.54,31.82 32,31.82 19.6,0 28.25,-13.53 32,-31.94 v 0 c 0,0 28,-157.57 42,-157.57 14,0 42.84,157.57 42.84,157.57 v 0 c 3.75,18.41 12.4,31.94 32,31.94 22.52,0 34.38,-15.74 32,-31.94 -0.21,-1.38 -0.46,-2.74 -0.76,-4.06 L 521,300.91 l -5.79,-45 c -4.19,-26.21 -0.82,-34.87 0.32,-36.9 a 1.09,1.09 0 0 0 0.08,-0.15 c 1.08,-2 6,-6.48 17.48,-10.79 l 89.28,-31.21 a 16.9,16.9 0 0 0 1.62,-0.52 c 16,-6 32,-14.3 32,-31.93 0,-17.63 -12.99,-36.96 -31.99,-31.97 z"
       style="fill:#ffcc00" />
  </g>
  <g
     inkscape:groupmode="layer"
     id="layer5"
     inkscape:label="Layer 4"
     style="display:none">
    <path
       id="path845-0-8-2"
       d="M 512,111.52 A 56,56 0 1 1 568,55.52001 56.06,56.06 0 0 1 512,111.52 Z"
       style="fill:#cc0000" />
    <path
       id="path847-1-2-25"
       d="m 688,112.32 -0.45,0.12 v 0 l -0.42,0.13 c -1,0.28 -2,0.58 -3,0.89 -18.61,5.46 -108.93,30.92 -172.56,30.92 -59.13,0 -141.28,-22 -167.55999,-29.47 a 73.79,73.79 0 0 0 -8,-2.58 c -19,-5 -32,14.3 -32,31.94 0,17.47 15.7,25.79 31.55,31.76 v 0.28 L 430.78,206.05 c 9.73,3.73 12.33,7.54 13.6,10.84 4.13,10.59 0.83,31.56 -0.34,38.88 l -5.8,45 -32.19,176.19 q -0.15,0.72 -0.27,1.47 l -0.23,1.27 v 0 c -2.32,16.15 9.54,31.82 32,31.82 19.6,0 28.25,-13.53 32,-31.94 v 0 c 0,0 28,-157.57 42,-157.57 14,0 42.84,157.57 42.84,157.57 v 0 c 3.75,18.41 12.4,31.94 32,31.94 22.52,0 34.38,-15.74 32,-31.94 -0.21,-1.38 -0.46,-2.74 -0.76,-4.06 L 585,300.79 l -5.79,-45 c -4.19,-26.21 -0.82,-34.87 0.32,-36.9 a 1.09,1.09 0 0 0 0.08,-0.15 c 1.08,-2 6,-6.48 17.48,-10.79 l 89.28,-31.21 a 16.9,16.9 0 0 0 1.62,-0.52 c 16,-6 32,-14.3 32,-31.93 0,-17.63 -12.99,-36.96 -31.99,-31.97 z"
       style="fill:#cc0000" />
  </g>
  <path
     style="fill:#a0a0a0;stroke:none;stroke-width:0.619105"
     d="m 172.55879,511.35551 c -8.51054,-1.84664 -16.59424,-7.38575 -20.05306,-13.74073 -2.03454,-3.73812 -3.55396,-9.37722 -3.55396,-13.18999 0,-1.57322 7.40042,-43.37394 16.44538,-92.89048 16.62966,-91.0389 17.67577,-97.48846 23.88901,-147.28186 0.81154,-6.50377 0.34298,-22.40357 -0.75445,-25.60089 -1.17212,-3.41494 -4.89173,-7.33594 -9.04509,-9.53485 -2.10658,-1.11528 -23.53743,-8.11309 -51.58442,-16.84387 -26.38936,-8.21476 -48.816448,-15.32047 -49.837972,-15.79046 -16.06062,-7.38922 -21.950502,-11.30376 -25.838833,-17.17306 -3.242555,-4.89453 -4.285016,-8.58248 -4.256336,-15.05781 0.04318,-9.74871 3.208858,-18.09527 9.355221,-24.66575 6.816185,-7.28653 14.663447,-9.4334 24.168714,-6.61213 12.650389,3.75477 18.132339,5.27485 31.241126,8.66279 43.23011,11.17272 79.88343,17.9839 117.32043,21.8013 9.94352,1.01393 40.60881,1.01353 51.07618,-6.8e-4 41.23159,-3.99495 92.10096,-14.17902 141.46554,-28.32145 10.8121,-3.09755 12.53923,-3.43139 16.5424,-3.1975 11.21835,0.65542 20.67712,10.02624 24.00962,23.78634 1.55572,6.42364 1.11059,14.79652 -1.03035,19.38142 -3.14191,6.72847 -8.67842,11.92067 -17.65471,16.55677 -6.20167,3.20305 -8.02231,3.87108 -61.18014,22.44833 -27.56458,9.63308 -46.59327,16.62002 -49.86273,18.30857 -6.96912,3.59926 -9.75615,6.46971 -10.86732,11.1926 -1.11821,4.75279 -1.08715,17.29968 0.0641,25.90728 0.50098,3.74558 2.1853,16.70036 3.74294,28.78839 2.42663,18.83182 5.21352,34.74116 19.4669,111.12938 9.14916,49.03313 16.81819,90.54414 17.04229,92.24668 0.55186,4.19264 -0.64818,10.281 -2.90931,14.76027 -4.94654,9.79905 -16.1413,15.86067 -29.30083,15.86553 -10.95505,0.004 -19.58094,-4.28389 -25.0285,-12.44168 -4.39591,-6.58292 -5.91891,-11.83451 -11.24696,-38.78154 -18.07381,-91.40965 -32.04827,-140.27921 -39.44236,-137.93241 -7.60865,2.41488 -22.38683,57.40393 -38.50359,143.27029 -3.43648,18.3088 -4.66854,23.0014 -7.65854,29.16948 -2.37838,4.90635 -7.90851,10.95898 -12.09461,13.23734 -6.02573,3.27961 -15.92562,4.32369 -24.1258,2.54438 z"
     id="path974" />
</svg>
