<?xml version="1.0" encoding="UTF-8" standalone="no"?>
<svg
   xmlns:dc="http://purl.org/dc/elements/1.1/"
   xmlns:cc="http://creativecommons.org/ns#"
   xmlns:rdf="http://www.w3.org/1999/02/22-rdf-syntax-ns#"
   xmlns:svg="http://www.w3.org/2000/svg"
   xmlns="http://www.w3.org/2000/svg"
   xmlns:sodipodi="http://sodipodi.sourceforge.net/DTD/sodipodi-0.dtd"
   xmlns:inkscape="http://www.inkscape.org/namespaces/inkscape"
   inkscape:version="1.0 (4035a4fb49, 2020-05-01)"
   sodipodi:docname="icon.svg"
   id="svg849"
   version="1.1"
   viewBox="0 0 512 512"
   height="512px"
   width="512px">
  <metadata
     id="metadata855">
    <rdf:RDF>
      <cc:Work
         rdf:about="">
        <dc:format>image/svg+xml</dc:format>
        <dc:type
           rdf:resource="http://purl.org/dc/dcmitype/StillImage" />
        <dc:title></dc:title>
      </cc:Work>
    </rdf:RDF>
  </metadata>
  <defs
     id="defs853" />
  <sodipodi:namedview
     inkscape:current-layer="svg849"
     inkscape:window-maximized="1"
     inkscape:window-y="0"
     inkscape:window-x="0"
     inkscape:cy="256"
     inkscape:cx="256"
     inkscape:zoom="1.6152344"
     showgrid="false"
     id="namedview851"
     inkscape:window-height="480"
     inkscape:window-width="911"
     inkscape:pageshadow="2"
     inkscape:pageopacity="0"
     guidetolerance="10"
     gridtolerance="10"
     objecttolerance="10"
     borderopacity="1"
     bordercolor="#666666"
     pagecolor="#ffffff" />
  <path
     id="path845"
     d="M256,112a56,56,0,1,1,56-56A56.06,56.06,0,0,1,256,112Z" />
  <path
     id="path847"
     d="M432,112.8l-.45.12h0l-.42.13c-1,.28-2,.58-3,.89-18.61,5.46-108.93,30.92-172.56,30.92-59.13,0-141.28-22-167.56-29.47a73.79,73.79,0,0,0-8-2.58c-19-5-32,14.3-32,31.94,0,17.47,15.7,25.79,31.55,31.76v.28l95.22,29.74c9.73,3.73,12.33,7.54,13.6,10.84,4.13,10.59.83,31.56-.34,38.88l-5.8,45L150.05,477.44q-.15.72-.27,1.47l-.23,1.27h0c-2.32,16.15,9.54,31.82,32,31.82,19.6,0,28.25-13.53,32-31.94h0s28-157.57,42-157.57,42.84,157.57,42.84,157.57h0c3.75,18.41,12.4,31.94,32,31.94,22.52,0,34.38-15.74,32-31.94-.21-1.38-.46-2.74-.76-4.06L329,301.27l-5.79-45c-4.19-26.21-.82-34.87.32-36.9a1.09,1.09,0,0,0,.08-.15c1.08-2,6-6.48,17.48-10.79l89.28-31.21a16.9,16.9,0,0,0,1.62-.52c16-6,32-14.3,32-31.93S451,107.81,432,112.8Z" />
</svg>
